<svg id="visual" viewBox="0 0 900 600" width="900" height="600" xmlns="http://www.w3.org/2000/svg" xmlns:xlink="http://www.w3.org/1999/xlink" version="1.1"><rect width="900" height="600" fill="#001220"></rect><g><g transform="translate(158 197)"><path d="M36.3 -28C47.7 -14.7 58 0.4 57.3 16.8C56.5 33.3 44.8 50.9 27.9 59.7C11.1 68.4 -10.9 68.3 -25.3 58.9C-39.8 49.5 -46.7 30.9 -48 14.2C-49.2 -2.5 -44.7 -17.3 -35.8 -30C-26.8 -42.8 -13.4 -53.4 -0.5 -53.1C12.5 -52.7 25 -41.3 36.3 -28Z" stroke="#5e199b" fill="none" stroke-width="20"></path></g><g transform="translate(138 477)"><path d="M37.1 -28.3C45.9 -18.5 49.5 -3.2 46.3 10.5C43.1 24.1 33.2 36.2 20.1 42.9C7.1 49.6 -9 50.9 -17.1 43.8C-25.2 36.8 -25.1 21.2 -27.2 7.6C-29.2 -6.1 -33.3 -18 -29.1 -26.7C-24.9 -35.5 -12.5 -41.1 0.8 -41.8C14.1 -42.4 28.2 -38.1 37.1 -28.3Z" stroke="#5e199b" fill="none" stroke-width="20"></path></g><g transform="translate(535 366)"><path d="M40.7 -37.6C45 -27.1 35.4 -10.6 30.6 5.5C25.7 21.6 25.6 37.3 19.4 40.3C13.2 43.3 0.9 33.5 -14.7 27.3C-30.3 21 -49.2 18.3 -56 7.4C-62.8 -3.5 -57.5 -22.5 -46.1 -34.7C-34.8 -46.8 -17.4 -52 0.4 -52.3C18.2 -52.7 36.4 -48.1 40.7 -37.6Z" stroke="#5e199b" fill="none" stroke-width="20"></path></g><g transform="translate(589 595)"><path d="M29 -26.1C35.3 -15.3 36.3 -3.4 33.8 7.8C31.4 19.1 25.4 29.6 16.3 34.2C7.2 38.7 -5 37.2 -14.9 32C-24.8 26.8 -32.3 18 -36.2 6.7C-40 -4.6 -40.1 -18.3 -33.4 -29.2C-26.8 -40 -13.4 -48 -1 -47.2C11.4 -46.5 22.8 -36.9 29 -26.1Z" stroke="#5e199b" fill="none" stroke-width="20"></path></g><g transform="translate(307 534)"><path d="M29.3 -28.7C34.8 -16.4 34.1 -4.4 32.1 8.5C30 21.4 26.8 35.1 18.8 38.9C10.9 42.6 -1.8 36.4 -15.4 30.4C-28.9 24.5 -43.3 18.8 -48.5 7.7C-53.7 -3.4 -49.8 -20 -40.2 -33.2C-30.5 -46.4 -15.3 -56.2 -1.7 -54.9C11.9 -53.5 23.8 -41 29.3 -28.7Z" stroke="#5e199b" fill="none" stroke-width="20"></path></g><g transform="translate(581 55)"><path d="M26.7 -25.4C30.8 -16.2 27.6 -5.3 25.4 6.2C23.1 17.8 21.7 30 15.8 32.8C9.9 35.7 -0.4 29.1 -10.4 23.5C-20.4 18 -30 13.5 -30.7 7.8C-31.3 2.1 -23.1 -4.9 -16.5 -14.7C-9.9 -24.5 -5 -37.1 3.2 -39.6C11.3 -42.2 22.7 -34.6 26.7 -25.4Z" stroke="#5e199b" fill="none" stroke-width="20"></path></g><g transform="translate(717 378)"><path d="M23.6 -18.3C27.5 -13.9 25.5 -4.3 22.9 4.5C20.4 13.3 17.2 21.2 10.8 25.5C4.4 29.7 -5.2 30.3 -13.4 26.8C-21.5 23.3 -28.1 15.6 -32.2 5.2C-36.2 -5.2 -37.8 -18.2 -32 -23.1C-26.2 -27.9 -13.1 -24.4 -1.6 -23.1C9.8 -21.8 19.7 -22.7 23.6 -18.3Z" stroke="#5e199b" fill="none" stroke-width="20"></path></g><g transform="translate(264 376)"><path d="M34.2 -27.7C39.1 -21 34.4 -7.1 30.3 5.3C26.2 17.8 22.7 28.8 15.1 33.1C7.5 37.5 -4.2 35.3 -15.4 30.5C-26.6 25.7 -37.3 18.3 -40.8 7.9C-44.3 -2.5 -40.5 -15.9 -32.6 -23.3C-24.6 -30.7 -12.3 -32.1 1.2 -33C14.6 -33.9 29.2 -34.4 34.2 -27.7Z" stroke="#5e199b" fill="none" stroke-width="20"></path></g><g transform="translate(878 71)"><path d="M18.9 -15C24 -8.6 27.4 -0.8 26.3 6.7C25.1 14.1 19.4 21.2 11.8 25.1C4.2 29 -5.3 29.8 -13.6 26.4C-21.9 23.1 -29.1 15.7 -33.1 5.5C-37.1 -4.7 -37.9 -17.8 -31.8 -24.4C-25.8 -31 -12.9 -31.2 -3 -28.8C6.9 -26.4 13.7 -21.4 18.9 -15Z" stroke="#5e199b" fill="none" stroke-width="20"></path></g><g transform="translate(899 413)"><path d="M32 -28C37.7 -18.3 36 -5.2 33.5 8.3C30.9 21.8 27.4 35.8 19.8 38.5C12.1 41.2 0.3 32.6 -12.7 26.4C-25.7 20.1 -39.9 16.2 -42.6 8.6C-45.2 0.9 -36.4 -10.5 -27.4 -21C-18.4 -31.4 -9.2 -40.9 2 -42.5C13.1 -44 26.3 -37.7 32 -28Z" stroke="#5e199b" fill="none" stroke-width="20"></path></g><g transform="translate(302 103)"><path d="M34.4 -29.2C43.8 -15.7 49.9 -1.5 46.7 9.7C43.4 20.9 30.7 29.1 16.8 36.3C3 43.4 -12 49.6 -24 45.5C-36 41.3 -45 26.9 -47.8 11.7C-50.6 -3.4 -47.1 -19.1 -38.1 -32.5C-29.1 -45.9 -14.5 -57.1 -1 -56.3C12.5 -55.5 25.1 -42.8 34.4 -29.2Z" stroke="#5e199b" fill="none" stroke-width="20"></path></g><g transform="translate(841 591)"><path d="M25.1 -18.7C31 -12.8 32.9 -2.4 30.6 6.6C28.2 15.6 21.6 23.3 13.7 26.3C5.8 29.3 -3.3 27.6 -10.4 23.5C-17.6 19.3 -22.7 12.8 -25.7 4.5C-28.7 -3.9 -29.7 -14.2 -25 -19.8C-20.4 -25.5 -10.2 -26.6 -0.3 -26.3C9.7 -26.1 19.3 -24.6 25.1 -18.7Z" stroke="#5e199b" fill="none" stroke-width="20"></path></g><g transform="translate(378 261)"><path d="M28.2 -19.8C40.6 -7.1 57.2 4.9 58.7 19.4C60.2 33.9 46.5 51 31.2 54.4C15.9 57.8 -0.9 47.4 -12.3 37.4C-23.6 27.4 -29.5 17.7 -31.7 7.4C-33.9 -2.9 -32.6 -13.9 -26.7 -25.2C-20.8 -36.4 -10.4 -47.8 -1.2 -46.9C8 -45.9 15.9 -32.5 28.2 -19.8Z" stroke="#5e199b" fill="none" stroke-width="20"></path></g><g transform="translate(708 181)"><path d="M44 -28.9C54.8 -21.6 59.8 -3.4 56.2 12.9C52.6 29.3 40.3 43.8 25.2 50.2C10.1 56.7 -7.8 55.1 -22.1 47.5C-36.4 40 -47 26.6 -48.1 13.4C-49.2 0.2 -40.7 -12.7 -31.1 -19.8C-21.5 -26.9 -10.7 -28.2 2.9 -30.5C16.6 -32.9 33.2 -36.3 44 -28.9Z" stroke="#5e199b" fill="none" stroke-width="20"></path></g><g transform="translate(17 353)"><path d="M22.5 -21.2C26.6 -12.9 25.5 -3.7 23.5 5.5C21.5 14.7 18.7 23.8 10.9 30.6C3.2 37.3 -9.5 41.8 -21.2 38.3C-32.8 34.9 -43.4 23.6 -43 13.3C-42.6 3 -31.1 -6.3 -22.1 -15.7C-13.1 -25.2 -6.5 -34.7 1.3 -35.8C9.2 -36.8 18.5 -29.5 22.5 -21.2Z" stroke="#5e199b" fill="none" stroke-width="20"></path></g><g transform="translate(88 7)"><path d="M36.1 -32.4C41.1 -22.6 35.3 -7.9 31.5 6.7C27.8 21.3 26 35.8 18.5 40C11 44.2 -2.2 38.2 -12.5 31.2C-22.7 24.2 -30 16.4 -36.5 3.7C-43.1 -8.9 -48.9 -26.3 -42.7 -36.3C-36.5 -46.4 -18.2 -49.1 -1.3 -48C15.6 -46.9 31.2 -42.1 36.1 -32.4Z" stroke="#5e199b" fill="none" stroke-width="20"></path></g><g transform="translate(873 252)"><path d="M36.3 -28.1C43.9 -19.4 44.8 -4.5 40.3 6.8C35.8 18.1 26 25.7 16.1 28.6C6.3 31.5 -3.5 29.6 -13.3 25.6C-23.1 21.7 -32.8 15.7 -39 4.4C-45.1 -6.9 -47.8 -23.6 -40.7 -32.2C-33.6 -40.7 -16.8 -41.2 -1.2 -40.2C14.3 -39.3 28.6 -36.8 36.3 -28.1Z" stroke="#5e199b" fill="none" stroke-width="20"></path></g></g></svg>