<svg id="visual" viewBox="0 0 960 540" width="960" height="540" xmlns="http://www.w3.org/2000/svg" xmlns:xlink="http://www.w3.org/1999/xlink" version="1.1"><rect x="0" y="0" width="960" height="540" fill="#001220"></rect><defs><linearGradient id="grad1_0" x1="43.8%" y1="100%" x2="100%" y2="0%"><stop offset="14.444444444444446%" stop-color="#5e199b" stop-opacity="1"></stop><stop offset="85.55555555555554%" stop-color="#5e199b" stop-opacity="1"></stop></linearGradient></defs><defs><linearGradient id="grad1_1" x1="43.8%" y1="100%" x2="100%" y2="0%"><stop offset="14.444444444444446%" stop-color="#5e199b" stop-opacity="1"></stop><stop offset="85.55555555555554%" stop-color="#30278a" stop-opacity="1"></stop></linearGradient></defs><defs><linearGradient id="grad1_2" x1="43.8%" y1="100%" x2="100%" y2="0%"><stop offset="14.444444444444446%" stop-color="#002873" stop-opacity="1"></stop><stop offset="85.55555555555554%" stop-color="#30278a" stop-opacity="1"></stop></linearGradient></defs><defs><linearGradient id="grad1_3" x1="43.8%" y1="100%" x2="100%" y2="0%"><stop offset="14.444444444444446%" stop-color="#002873" stop-opacity="1"></stop><stop offset="85.55555555555554%" stop-color="#002358" stop-opacity="1"></stop></linearGradient></defs><defs><linearGradient id="grad1_4" x1="43.8%" y1="100%" x2="100%" y2="0%"><stop offset="14.444444444444446%" stop-color="#001c3c" stop-opacity="1"></stop><stop offset="85.55555555555554%" stop-color="#002358" stop-opacity="1"></stop></linearGradient></defs><defs><linearGradient id="grad1_5" x1="43.8%" y1="100%" x2="100%" y2="0%"><stop offset="14.444444444444446%" stop-color="#001c3c" stop-opacity="1"></stop><stop offset="85.55555555555554%" stop-color="#001220" stop-opacity="1"></stop></linearGradient></defs><defs><linearGradient id="grad2_0" x1="0%" y1="100%" x2="56.3%" y2="0%"><stop offset="14.444444444444446%" stop-color="#5e199b" stop-opacity="1"></stop><stop offset="85.55555555555554%" stop-color="#5e199b" stop-opacity="1"></stop></linearGradient></defs><defs><linearGradient id="grad2_1" x1="0%" y1="100%" x2="56.3%" y2="0%"><stop offset="14.444444444444446%" stop-color="#30278a" stop-opacity="1"></stop><stop offset="85.55555555555554%" stop-color="#5e199b" stop-opacity="1"></stop></linearGradient></defs><defs><linearGradient id="grad2_2" x1="0%" y1="100%" x2="56.3%" y2="0%"><stop offset="14.444444444444446%" stop-color="#30278a" stop-opacity="1"></stop><stop offset="85.55555555555554%" stop-color="#002873" stop-opacity="1"></stop></linearGradient></defs><defs><linearGradient id="grad2_3" x1="0%" y1="100%" x2="56.3%" y2="0%"><stop offset="14.444444444444446%" stop-color="#002358" stop-opacity="1"></stop><stop offset="85.55555555555554%" stop-color="#002873" stop-opacity="1"></stop></linearGradient></defs><defs><linearGradient id="grad2_4" x1="0%" y1="100%" x2="56.3%" y2="0%"><stop offset="14.444444444444446%" stop-color="#002358" stop-opacity="1"></stop><stop offset="85.55555555555554%" stop-color="#001c3c" stop-opacity="1"></stop></linearGradient></defs><defs><linearGradient id="grad2_5" x1="0%" y1="100%" x2="56.3%" y2="0%"><stop offset="14.444444444444446%" stop-color="#001220" stop-opacity="1"></stop><stop offset="85.55555555555554%" stop-color="#001c3c" stop-opacity="1"></stop></linearGradient></defs><g transform="translate(960, 540)"><path d="M-351 0C-328.4 -27 -305.7 -54.1 -289.8 -77.6C-273.8 -101.2 -264.6 -121.3 -260.7 -150.5C-256.8 -179.7 -258.2 -218.2 -244 -244C-229.7 -269.7 -199.6 -282.9 -172 -297.9C-144.4 -312.9 -119.1 -329.9 -90.8 -339C-62.6 -348.2 -31.3 -349.6 0 -351L0 0Z" fill="#00172e"></path><path d="M-292.5 0C-273.6 -22.5 -254.8 -45.1 -241.5 -64.7C-228.2 -84.3 -220.5 -101 -217.2 -125.4C-214 -149.8 -215.2 -181.8 -203.3 -203.3C-191.4 -224.8 -166.4 -235.7 -143.3 -248.3C-120.3 -260.8 -99.3 -274.9 -75.7 -282.5C-52.1 -290.2 -26.1 -291.3 0 -292.5L0 0Z" fill="#00204a"></path><path d="M-234 0C-218.9 -18 -203.8 -36.1 -193.2 -51.8C-182.6 -67.5 -176.4 -80.8 -173.8 -100.3C-171.2 -119.8 -172.2 -145.4 -162.6 -162.6C-153.1 -179.8 -133.1 -188.6 -114.7 -198.6C-96.2 -208.6 -79.4 -219.9 -60.6 -226C-41.7 -232.1 -20.9 -233.1 0 -234L0 0Z" fill="#002666"></path><path d="M-175.5 0C-164.2 -13.5 -152.9 -27 -144.9 -38.8C-136.9 -50.6 -132.3 -60.6 -130.3 -75.3C-128.4 -89.9 -129.1 -109.1 -122 -122C-114.8 -134.9 -99.8 -141.4 -86 -149C-72.2 -156.5 -59.6 -164.9 -45.4 -169.5C-31.3 -174.1 -15.6 -174.8 0 -175.5L0 0Z" fill="#17287f"></path><path d="M-117 0C-109.5 -9 -101.9 -18 -96.6 -25.9C-91.3 -33.7 -88.2 -40.4 -86.9 -50.2C-85.6 -59.9 -86.1 -72.7 -81.3 -81.3C-76.6 -89.9 -66.5 -94.3 -57.3 -99.3C-48.1 -104.3 -39.7 -110 -30.3 -113C-20.9 -116.1 -10.4 -116.5 0 -117L0 0Z" fill="#472293"></path><path d="M-58.5 0C-54.7 -4.5 -51 -9 -48.3 -12.9C-45.6 -16.9 -44.1 -20.2 -43.4 -25.1C-42.8 -30 -43 -36.4 -40.7 -40.7C-38.3 -45 -33.3 -47.1 -28.7 -49.7C-24.1 -52.2 -19.9 -55 -15.1 -56.5C-10.4 -58 -5.2 -58.3 0 -58.5L0 0Z" fill="#5e199b"></path></g><g transform="translate(0, 0)"><path d="M351 0C350.4 31.7 349.9 63.5 337.1 90.3C324.3 117.2 299.4 139.1 280.6 162C261.8 184.9 249.1 208.6 233.3 233.3C217.6 258.1 198.7 283.7 174.5 302.2C150.3 320.8 120.8 332.1 90.8 339C60.9 346 30.4 348.5 0 351L0 0Z" fill="#00172e"></path><path d="M292.5 0C292 26.4 291.6 52.9 280.9 75.3C270.3 97.6 249.5 115.9 233.8 135C218.2 154.1 207.6 173.9 194.5 194.5C181.3 215.1 165.6 236.4 145.4 251.9C125.3 267.3 100.7 276.8 75.7 282.5C50.7 288.3 25.4 290.4 0 292.5L0 0Z" fill="#00204a"></path><path d="M234 0C233.6 21.2 233.2 42.3 224.7 60.2C216.2 78.1 199.6 92.8 187.1 108C174.5 123.2 166.1 139.1 155.6 155.6C145 172 132.5 189.2 116.3 201.5C100.2 213.8 80.5 221.4 60.6 226C40.6 230.6 20.3 232.3 0 234L0 0Z" fill="#002666"></path><path d="M175.5 0C175.2 15.9 174.9 31.7 168.6 45.2C162.2 58.6 149.7 69.6 140.3 81C130.9 92.4 124.6 104.3 116.7 116.7C108.8 129 99.3 141.9 87.3 151.1C75.2 160.4 60.4 166.1 45.4 169.5C30.4 173 15.2 174.2 0 175.5L0 0Z" fill="#17287f"></path><path d="M117 0C116.8 10.6 116.6 21.2 112.4 30.1C108.1 39.1 99.8 46.4 93.5 54C87.3 61.6 83 69.5 77.8 77.8C72.5 86 66.2 94.6 58.2 100.7C50.1 106.9 40.3 110.7 30.3 113C20.3 115.3 10.1 116.2 0 117L0 0Z" fill="#472293"></path><path d="M58.5 0C58.4 5.3 58.3 10.6 56.2 15.1C54.1 19.5 49.9 23.2 46.8 27C43.6 30.8 41.5 34.8 38.9 38.9C36.3 43 33.1 47.3 29.1 50.4C25.1 53.5 20.1 55.4 15.1 56.5C10.1 57.7 5.1 58.1 0 58.5L0 0Z" fill="#5e199b"></path></g></svg>