<svg id="visual" viewBox="0 0 960 540" width="960" height="540" xmlns="http://www.w3.org/2000/svg" xmlns:xlink="http://www.w3.org/1999/xlink" version="1.1"><rect x="0" y="0" width="960" height="540" fill="#001220"></rect><defs><linearGradient id="grad1_0" x1="43.8%" y1="0%" x2="100%" y2="100%"><stop offset="14.444444444444446%" stop-color="#5e199b" stop-opacity="1"></stop><stop offset="85.55555555555554%" stop-color="#5e199b" stop-opacity="1"></stop></linearGradient></defs><defs><linearGradient id="grad1_1" x1="43.8%" y1="0%" x2="100%" y2="100%"><stop offset="14.444444444444446%" stop-color="#5e199b" stop-opacity="1"></stop><stop offset="85.55555555555554%" stop-color="#30278a" stop-opacity="1"></stop></linearGradient></defs><defs><linearGradient id="grad1_2" x1="43.8%" y1="0%" x2="100%" y2="100%"><stop offset="14.444444444444446%" stop-color="#002873" stop-opacity="1"></stop><stop offset="85.55555555555554%" stop-color="#30278a" stop-opacity="1"></stop></linearGradient></defs><defs><linearGradient id="grad1_3" x1="43.8%" y1="0%" x2="100%" y2="100%"><stop offset="14.444444444444446%" stop-color="#002873" stop-opacity="1"></stop><stop offset="85.55555555555554%" stop-color="#002358" stop-opacity="1"></stop></linearGradient></defs><defs><linearGradient id="grad1_4" x1="43.8%" y1="0%" x2="100%" y2="100%"><stop offset="14.444444444444446%" stop-color="#001c3c" stop-opacity="1"></stop><stop offset="85.55555555555554%" stop-color="#002358" stop-opacity="1"></stop></linearGradient></defs><defs><linearGradient id="grad1_5" x1="43.8%" y1="0%" x2="100%" y2="100%"><stop offset="14.444444444444446%" stop-color="#001c3c" stop-opacity="1"></stop><stop offset="85.55555555555554%" stop-color="#001220" stop-opacity="1"></stop></linearGradient></defs><defs><linearGradient id="grad2_0" x1="0%" y1="0%" x2="56.3%" y2="100%"><stop offset="14.444444444444446%" stop-color="#5e199b" stop-opacity="1"></stop><stop offset="85.55555555555554%" stop-color="#5e199b" stop-opacity="1"></stop></linearGradient></defs><defs><linearGradient id="grad2_1" x1="0%" y1="0%" x2="56.3%" y2="100%"><stop offset="14.444444444444446%" stop-color="#30278a" stop-opacity="1"></stop><stop offset="85.55555555555554%" stop-color="#5e199b" stop-opacity="1"></stop></linearGradient></defs><defs><linearGradient id="grad2_2" x1="0%" y1="0%" x2="56.3%" y2="100%"><stop offset="14.444444444444446%" stop-color="#30278a" stop-opacity="1"></stop><stop offset="85.55555555555554%" stop-color="#002873" stop-opacity="1"></stop></linearGradient></defs><defs><linearGradient id="grad2_3" x1="0%" y1="0%" x2="56.3%" y2="100%"><stop offset="14.444444444444446%" stop-color="#002358" stop-opacity="1"></stop><stop offset="85.55555555555554%" stop-color="#002873" stop-opacity="1"></stop></linearGradient></defs><defs><linearGradient id="grad2_4" x1="0%" y1="0%" x2="56.3%" y2="100%"><stop offset="14.444444444444446%" stop-color="#002358" stop-opacity="1"></stop><stop offset="85.55555555555554%" stop-color="#001c3c" stop-opacity="1"></stop></linearGradient></defs><defs><linearGradient id="grad2_5" x1="0%" y1="0%" x2="56.3%" y2="100%"><stop offset="14.444444444444446%" stop-color="#001220" stop-opacity="1"></stop><stop offset="85.55555555555554%" stop-color="#001c3c" stop-opacity="1"></stop></linearGradient></defs><g transform="translate(960, 0)"><path d="M0 422C-42.3 414.4 -84.6 406.9 -129.2 397.5C-173.8 388.2 -220.7 377.1 -253.9 349.5C-287.1 321.8 -306.6 277.6 -328.5 238.6C-350.3 199.7 -374.4 165.9 -390.9 127C-407.4 88.1 -416.2 44.1 -425 0L0 0Z" fill="#00172e"></path><path d="M0 351.7C-35.2 345.4 -70.5 339.1 -107.6 331.3C-144.8 323.5 -183.9 314.3 -211.6 291.2C-239.3 268.2 -255.5 231.4 -273.7 198.9C-291.9 166.4 -312 138.3 -325.7 105.8C-339.5 73.4 -346.8 36.7 -354.2 0L0 0Z" fill="#00204a"></path><path d="M0 281.3C-28.2 276.3 -56.4 271.2 -86.1 265C-115.9 258.8 -147.1 251.4 -169.3 233C-191.4 214.6 -204.4 185.1 -219 159.1C-233.5 133.1 -249.6 110.6 -260.6 84.7C-271.6 58.7 -277.5 29.4 -283.3 0L0 0Z" fill="#002666"></path><path d="M0 211C-21.1 207.2 -42.3 203.4 -64.6 198.8C-86.9 194.1 -110.4 188.6 -127 174.7C-143.6 160.9 -153.3 138.8 -164.2 119.3C-175.1 99.8 -187.2 83 -195.4 63.5C-203.7 44.1 -208.1 22 -212.5 0L0 0Z" fill="#17287f"></path><path d="M0 140.7C-14.1 138.1 -28.2 135.6 -43.1 132.5C-57.9 129.4 -73.6 125.7 -84.6 116.5C-95.7 107.3 -102.2 92.5 -109.5 79.5C-116.8 66.6 -124.8 55.3 -130.3 42.3C-135.8 29.4 -138.7 14.7 -141.7 0L0 0Z" fill="#472293"></path><path d="M0 70.3C-7 69.1 -14.1 67.8 -21.5 66.3C-29 64.7 -36.8 62.9 -42.3 58.2C-47.9 53.6 -51.1 46.3 -54.7 39.8C-58.4 33.3 -62.4 27.7 -65.1 21.2C-67.9 14.7 -69.4 7.3 -70.8 0L0 0Z" fill="#5e199b"></path></g><g transform="translate(0, 540)"><path d="M0 -430C46.2 -425.4 92.4 -420.7 130.4 -401.3C168.5 -382 198.4 -347.9 234.5 -322.8C270.7 -297.7 313.1 -281.6 346.3 -251.6C379.4 -221.6 403.4 -177.7 410.9 -133.5C418.3 -89.3 409.1 -44.6 400 0L0 0Z" fill="#00172e"></path><path d="M0 -358.3C38.5 -354.5 77 -350.6 108.7 -334.5C140.4 -318.3 165.3 -289.9 195.4 -269C225.6 -248.1 260.9 -234.6 288.5 -209.6C316.2 -184.7 336.2 -148.1 342.4 -111.2C348.6 -74.4 340.9 -37.2 333.3 0L0 0Z" fill="#00204a"></path><path d="M0 -286.7C30.8 -283.6 61.6 -280.5 86.9 -267.6C112.3 -254.7 132.2 -231.9 156.4 -215.2C180.5 -198.5 208.7 -187.7 230.8 -167.7C253 -147.7 269 -118.5 273.9 -89C278.9 -59.5 272.8 -29.8 266.7 0L0 0Z" fill="#002666"></path><path d="M0 -215C23.1 -212.7 46.2 -210.4 65.2 -200.7C84.2 -191 99.2 -174 117.3 -161.4C135.3 -148.8 156.5 -140.8 173.1 -125.8C189.7 -110.8 201.7 -88.9 205.4 -66.7C209.1 -44.6 204.6 -22.3 200 0L0 0Z" fill="#17287f"></path><path d="M0 -143.3C15.4 -141.8 30.8 -140.2 43.5 -133.8C56.2 -127.3 66.1 -116 78.2 -107.6C90.2 -99.2 104.4 -93.9 115.4 -83.9C126.5 -73.9 134.5 -59.2 137 -44.5C139.4 -29.8 136.4 -14.9 133.3 0L0 0Z" fill="#472293"></path><path d="M0 -71.7C7.7 -70.9 15.4 -70.1 21.7 -66.9C28.1 -63.7 33.1 -58 39.1 -53.8C45.1 -49.6 52.2 -46.9 57.7 -41.9C63.2 -36.9 67.2 -29.6 68.5 -22.2C69.7 -14.9 68.2 -7.4 66.7 0L0 0Z" fill="#5e199b"></path></g></svg>