<svg id="visual" viewBox="0 0 540 960" width="540" height="960" xmlns="http://www.w3.org/2000/svg" xmlns:xlink="http://www.w3.org/1999/xlink" version="1.1"><rect x="0" y="0" width="540" height="960" fill="#001220"></rect><defs><linearGradient id="grad1_0" x1="0%" y1="0%" x2="100%" y2="100%"><stop offset="30%" stop-color="#5e199b" stop-opacity="1"></stop><stop offset="70%" stop-color="#5e199b" stop-opacity="1"></stop></linearGradient></defs><defs><linearGradient id="grad1_1" x1="0%" y1="0%" x2="100%" y2="100%"><stop offset="30%" stop-color="#5e199b" stop-opacity="1"></stop><stop offset="70%" stop-color="#30278a" stop-opacity="1"></stop></linearGradient></defs><defs><linearGradient id="grad1_2" x1="0%" y1="0%" x2="100%" y2="100%"><stop offset="30%" stop-color="#002873" stop-opacity="1"></stop><stop offset="70%" stop-color="#30278a" stop-opacity="1"></stop></linearGradient></defs><defs><linearGradient id="grad1_3" x1="0%" y1="0%" x2="100%" y2="100%"><stop offset="30%" stop-color="#002873" stop-opacity="1"></stop><stop offset="70%" stop-color="#002358" stop-opacity="1"></stop></linearGradient></defs><defs><linearGradient id="grad1_4" x1="0%" y1="0%" x2="100%" y2="100%"><stop offset="30%" stop-color="#001c3c" stop-opacity="1"></stop><stop offset="70%" stop-color="#002358" stop-opacity="1"></stop></linearGradient></defs><defs><linearGradient id="grad1_5" x1="0%" y1="0%" x2="100%" y2="100%"><stop offset="30%" stop-color="#001c3c" stop-opacity="1"></stop><stop offset="70%" stop-color="#001220" stop-opacity="1"></stop></linearGradient></defs><defs><linearGradient id="grad2_0" x1="0%" y1="0%" x2="100%" y2="100%"><stop offset="30%" stop-color="#5e199b" stop-opacity="1"></stop><stop offset="70%" stop-color="#5e199b" stop-opacity="1"></stop></linearGradient></defs><defs><linearGradient id="grad2_1" x1="0%" y1="0%" x2="100%" y2="100%"><stop offset="30%" stop-color="#30278a" stop-opacity="1"></stop><stop offset="70%" stop-color="#5e199b" stop-opacity="1"></stop></linearGradient></defs><defs><linearGradient id="grad2_2" x1="0%" y1="0%" x2="100%" y2="100%"><stop offset="30%" stop-color="#30278a" stop-opacity="1"></stop><stop offset="70%" stop-color="#002873" stop-opacity="1"></stop></linearGradient></defs><defs><linearGradient id="grad2_3" x1="0%" y1="0%" x2="100%" y2="100%"><stop offset="30%" stop-color="#002358" stop-opacity="1"></stop><stop offset="70%" stop-color="#002873" stop-opacity="1"></stop></linearGradient></defs><defs><linearGradient id="grad2_4" x1="0%" y1="0%" x2="100%" y2="100%"><stop offset="30%" stop-color="#002358" stop-opacity="1"></stop><stop offset="70%" stop-color="#001c3c" stop-opacity="1"></stop></linearGradient></defs><defs><linearGradient id="grad2_5" x1="0%" y1="0%" x2="100%" y2="100%"><stop offset="30%" stop-color="#001220" stop-opacity="1"></stop><stop offset="70%" stop-color="#001c3c" stop-opacity="1"></stop></linearGradient></defs><g transform="translate(540, 0)"><path d="M0 427C-45.2 425.9 -90.5 424.7 -133.5 410.9C-176.5 397 -217.3 370.4 -244.5 336.6C-271.7 302.7 -285.3 261.6 -313.9 228.1C-342.4 194.6 -385.9 168.7 -406.1 132C-426.3 95.2 -423.1 47.6 -420 0L0 0Z" fill="#00172e"></path><path d="M0 355.8C-37.7 354.9 -75.4 353.9 -111.2 342.4C-147.1 330.8 -181.1 308.7 -203.8 280.5C-226.4 252.2 -237.8 218 -261.6 190.1C-285.4 162.1 -321.6 140.6 -338.4 110C-355.2 79.3 -352.6 39.7 -350 0L0 0Z" fill="#00204a"></path><path d="M0 284.7C-30.2 283.9 -60.3 283.1 -89 273.9C-117.7 264.7 -144.9 246.9 -163 224.4C-181.2 201.8 -190.2 174.4 -209.3 152C-228.3 129.7 -257.3 112.5 -270.7 88C-284.2 63.5 -282.1 31.7 -280 0L0 0Z" fill="#002666"></path><path d="M0 213.5C-22.6 212.9 -45.2 212.4 -66.7 205.4C-88.3 198.5 -108.7 185.2 -122.3 168.3C-135.9 151.3 -142.7 130.8 -156.9 114C-171.2 97.3 -193 84.3 -203.1 66C-213.1 47.6 -211.6 23.8 -210 0L0 0Z" fill="#17287f"></path><path d="M0 142.3C-15.1 142 -30.2 141.6 -44.5 137C-58.8 132.3 -72.4 123.5 -81.5 112.2C-90.6 100.9 -95.1 87.2 -104.6 76C-114.1 64.9 -128.6 56.2 -135.4 44C-142.1 31.7 -141 15.9 -140 0L0 0Z" fill="#472293"></path><path d="M0 71.2C-7.5 71 -15.1 70.8 -22.2 68.5C-29.4 66.2 -36.2 61.7 -40.8 56.1C-45.3 50.4 -47.6 43.6 -52.3 38C-57.1 32.4 -64.3 28.1 -67.7 22C-71 15.9 -70.5 7.9 -70 0L0 0Z" fill="#5e199b"></path></g><g transform="translate(0, 960)"><path d="M0 -424C45.4 -421 90.7 -417.9 130.4 -401.3C170.1 -384.8 204 -354.7 237.5 -326.8C270.9 -299 303.9 -273.4 332.5 -241.6C361.1 -209.8 385.5 -171.7 401.3 -130.4C417.2 -89.1 424.6 -44.6 432 0L0 0Z" fill="#00172e"></path><path d="M0 -353.3C37.8 -350.8 75.6 -348.3 108.7 -334.5C141.7 -320.6 170 -295.6 197.9 -272.4C225.8 -249.2 253.2 -227.8 277.1 -201.3C301 -174.8 321.2 -143.1 334.5 -108.7C347.7 -74.3 353.8 -37.1 360 0L0 0Z" fill="#00204a"></path><path d="M0 -282.7C30.2 -280.6 60.5 -278.6 86.9 -267.6C113.4 -256.5 136 -236.5 158.3 -217.9C180.6 -199.3 202.6 -182.3 221.7 -161.1C240.8 -139.8 257 -114.5 267.6 -86.9C278.1 -59.4 283.1 -29.7 288 0L0 0Z" fill="#002666"></path><path d="M0 -212C22.7 -210.5 45.4 -209 65.2 -200.7C85 -192.4 102 -177.3 118.7 -163.4C135.5 -149.5 151.9 -136.7 166.3 -120.8C180.6 -104.9 192.7 -85.9 200.7 -65.2C208.6 -44.6 212.3 -22.3 216 0L0 0Z" fill="#17287f"></path><path d="M0 -141.3C15.1 -140.3 30.2 -139.3 43.5 -133.8C56.7 -128.3 68 -118.2 79.2 -108.9C90.3 -99.7 101.3 -91.1 110.8 -80.5C120.4 -69.9 128.5 -57.2 133.8 -43.5C139.1 -29.7 141.5 -14.9 144 0L0 0Z" fill="#472293"></path><path d="M0 -70.7C7.6 -70.2 15.1 -69.7 21.7 -66.9C28.3 -64.1 34 -59.1 39.6 -54.5C45.2 -49.8 50.6 -45.6 55.4 -40.3C60.2 -35 64.2 -28.6 66.9 -21.7C69.5 -14.9 70.8 -7.4 72 0L0 0Z" fill="#5e199b"></path></g></svg>